<?xml version="1.0" ?><svg height="50px" id="Слой_1" style="enable-background:new 0 0 50 50;" version="1.1" viewBox="0 0 50 50" width="50px" xml:space="preserve" xmlns="http://www.w3.org/2000/svg" xmlns:xlink="http://www.w3.org/1999/xlink"><style type="text/css">
	.st0{fill:#374163;}
</style><g><path class="st0" d="M2.30431,22.64458c-0.75797,0-1.49934-0.37253-1.9401-1.05857   c-0.68604-1.06964-0.37437-2.49336,0.69526-3.18125L23.75793,3.84292c1.06964-0.68236,2.49336-0.37437,3.18125,0.69527   c0.68604,1.06964,0.37437,2.49336-0.69526,3.18125L3.54545,22.28127C3.16002,22.52655,2.73032,22.64458,2.30431,22.64458z"/><path class="st0" d="M47.69569,22.64458c-0.42601,0-0.85571-0.11803-1.24115-0.36331L23.75793,7.71944   c-1.06964-0.68789-1.38131-2.11161-0.69526-3.18125c0.68789-1.06964,2.10793-1.37762,3.18125-0.69527l22.69662,14.56183   c1.06964,0.68789,1.38131,2.11161,0.69526,3.18125C49.19503,22.27205,48.45366,22.64458,47.69569,22.64458z"/><path class="st0" d="M37.63372,46.51965H12.36628c-3.74927,0-6.79774-3.05031-6.79774-6.79958V17.45131   c0-1.27066,1.03091-2.30157,2.30157-2.30157s2.30157,1.03091,2.30157,2.30157v22.26876c0,1.19136,1.00509,2.19645,2.1946,2.19645   h25.26744c1.18951,0,2.1946-1.00509,2.1946-2.19645V17.45131c0-1.27066,1.03091-2.30157,2.30157-2.30157   s2.30157,1.03091,2.30157,2.30157v22.26876C44.43145,43.46933,41.38298,46.51965,37.63372,46.51965z"/><path class="st0" d="M30.24584,46.51965c-1.27066,0-2.30157-1.03091-2.30157-2.30157V31.74389h-5.88854v12.47419   c0,1.27066-1.03091,2.30157-2.30157,2.30157s-2.30157-1.03091-2.30157-2.30157V29.44232c0-1.27066,1.03091-2.30157,2.30157-2.30157   h10.49168c1.27066,0,2.30157,1.03091,2.30157,2.30157v14.77576C32.54741,45.48874,31.51649,46.51965,30.24584,46.51965z"/></g></svg>