<?xml version="1.0" ?><svg height="50px" id="Слой_1" style="enable-background:new 0 0 50 50;" version="1.1" viewBox="0 0 50 50" width="50px" xml:space="preserve" xmlns="http://www.w3.org/2000/svg" xmlns:xlink="http://www.w3.org/1999/xlink"><style type="text/css">
	.st0{fill:#374163;}
</style><g><path class="st0" d="M47.69835,47.8044H2.30165C1.03095,47.8044,0,46.7753,0,45.50275V20.23625   c0-1.27255,1.03095-2.30165,2.30165-2.30165h45.39671c1.2707,0,2.30165,1.0291,2.30165,2.30165v25.26649   C50,46.7753,48.96905,47.8044,47.69835,47.8044z M4.6033,43.2011h40.7934V22.5379H4.6033V43.2011z"/><path class="st0" d="M41.48869,14.61492H8.51315c-1.2707,0-2.30165-1.0291-2.30165-2.30165s1.03095-2.30165,2.30165-2.30165   h32.97554c1.2707,0,2.30165,1.0291,2.30165,2.30165S42.7594,14.61492,41.48869,14.61492z"/><path class="st0" d="M33.77965,6.7989H16.22035c-1.2707,0-2.30165-1.0291-2.30165-2.30165s1.03095-2.30165,2.30165-2.30165   h17.55929c1.2707,0,2.30165,1.0291,2.30165,2.30165S35.05035,6.7989,33.77965,6.7989z"/></g></svg>